<mxfile host="app.diagrams.net" agent="Mozilla/5.0 (Macintosh; Intel Mac OS X 10_15_7) AppleWebKit/537.36 (KHTML, like Gecko) Chrome/128.0.0.0 Safari/537.36" version="24.7.6">
  <diagram name="Page-1" id="Zs-9GhL3quepqtYed9hY">
    <mxGraphModel dx="1363" dy="1039" grid="1" gridSize="10" guides="1" tooltips="1" connect="1" arrows="1" fold="1" page="1" pageScale="1" pageWidth="827" pageHeight="1169" math="0" shadow="0">
      <root>
        <mxCell id="0" />
        <mxCell id="1" parent="0" />
        <mxCell id="GBUOb3WT3lDImv7dpIOP-16" style="edgeStyle=orthogonalEdgeStyle;rounded=0;orthogonalLoop=1;jettySize=auto;html=1;exitX=1;exitY=0.5;exitDx=0;exitDy=0;entryX=0.5;entryY=0;entryDx=0;entryDy=0;" edge="1" parent="1" source="GBUOb3WT3lDImv7dpIOP-1" target="GBUOb3WT3lDImv7dpIOP-2">
          <mxGeometry relative="1" as="geometry" />
        </mxCell>
        <mxCell id="GBUOb3WT3lDImv7dpIOP-1" value="Requirement&amp;nbsp;&lt;div&gt;Analysis&lt;/div&gt;" style="rounded=0;whiteSpace=wrap;html=1;" vertex="1" parent="1">
          <mxGeometry x="120" y="180" width="120" height="60" as="geometry" />
        </mxCell>
        <mxCell id="GBUOb3WT3lDImv7dpIOP-17" style="edgeStyle=orthogonalEdgeStyle;rounded=0;orthogonalLoop=1;jettySize=auto;html=1;exitX=1;exitY=0.5;exitDx=0;exitDy=0;" edge="1" parent="1" source="GBUOb3WT3lDImv7dpIOP-2" target="GBUOb3WT3lDImv7dpIOP-3">
          <mxGeometry relative="1" as="geometry" />
        </mxCell>
        <mxCell id="GBUOb3WT3lDImv7dpIOP-2" value="Planning" style="rounded=0;whiteSpace=wrap;html=1;" vertex="1" parent="1">
          <mxGeometry x="240" y="280" width="120" height="60" as="geometry" />
        </mxCell>
        <mxCell id="GBUOb3WT3lDImv7dpIOP-18" style="edgeStyle=orthogonalEdgeStyle;rounded=0;orthogonalLoop=1;jettySize=auto;html=1;exitX=1;exitY=0.5;exitDx=0;exitDy=0;entryX=0.5;entryY=0;entryDx=0;entryDy=0;" edge="1" parent="1" source="GBUOb3WT3lDImv7dpIOP-3" target="GBUOb3WT3lDImv7dpIOP-6">
          <mxGeometry relative="1" as="geometry" />
        </mxCell>
        <mxCell id="GBUOb3WT3lDImv7dpIOP-3" value="Designing" style="rounded=0;whiteSpace=wrap;html=1;" vertex="1" parent="1">
          <mxGeometry x="360" y="380" width="120" height="60" as="geometry" />
        </mxCell>
        <mxCell id="GBUOb3WT3lDImv7dpIOP-4" value="Delivery" style="rounded=0;whiteSpace=wrap;html=1;" vertex="1" parent="1">
          <mxGeometry x="730" y="612.5" width="120" height="60" as="geometry" />
        </mxCell>
        <mxCell id="GBUOb3WT3lDImv7dpIOP-20" style="edgeStyle=orthogonalEdgeStyle;rounded=0;orthogonalLoop=1;jettySize=auto;html=1;" edge="1" parent="1" source="GBUOb3WT3lDImv7dpIOP-5">
          <mxGeometry relative="1" as="geometry">
            <mxPoint x="780" y="610" as="targetPoint" />
          </mxGeometry>
        </mxCell>
        <mxCell id="GBUOb3WT3lDImv7dpIOP-5" value="Testing &amp;amp; Maintenance" style="rounded=0;whiteSpace=wrap;html=1;" vertex="1" parent="1">
          <mxGeometry x="600" y="540" width="120" height="60" as="geometry" />
        </mxCell>
        <mxCell id="GBUOb3WT3lDImv7dpIOP-19" style="edgeStyle=orthogonalEdgeStyle;rounded=0;orthogonalLoop=1;jettySize=auto;html=1;exitX=1;exitY=0.5;exitDx=0;exitDy=0;" edge="1" parent="1" source="GBUOb3WT3lDImv7dpIOP-6" target="GBUOb3WT3lDImv7dpIOP-5">
          <mxGeometry relative="1" as="geometry" />
        </mxCell>
        <mxCell id="GBUOb3WT3lDImv7dpIOP-6" value="&lt;div&gt;Implementation&lt;/div&gt;" style="rounded=0;whiteSpace=wrap;html=1;" vertex="1" parent="1">
          <mxGeometry x="480" y="460" width="120" height="60" as="geometry" />
        </mxCell>
        <mxCell id="GBUOb3WT3lDImv7dpIOP-7" value="" style="line;strokeWidth=4;direction=south;html=1;perimeter=backbonePerimeter;points=[];outlineConnect=0;" vertex="1" parent="1">
          <mxGeometry x="175" y="240" width="10" height="480" as="geometry" />
        </mxCell>
        <mxCell id="GBUOb3WT3lDImv7dpIOP-9" value="" style="line;strokeWidth=4;direction=south;html=1;perimeter=backbonePerimeter;points=[];outlineConnect=0;" vertex="1" parent="1">
          <mxGeometry x="775" y="670" width="10" height="50" as="geometry" />
        </mxCell>
        <mxCell id="GBUOb3WT3lDImv7dpIOP-10" value="" style="line;strokeWidth=4;direction=south;html=1;perimeter=backbonePerimeter;points=[];outlineConnect=0;" vertex="1" parent="1">
          <mxGeometry x="650" y="600" width="10" height="120" as="geometry" />
        </mxCell>
        <mxCell id="GBUOb3WT3lDImv7dpIOP-11" value="" style="line;strokeWidth=4;direction=south;html=1;perimeter=backbonePerimeter;points=[];outlineConnect=0;" vertex="1" parent="1">
          <mxGeometry x="530" y="520" width="10" height="200" as="geometry" />
        </mxCell>
        <mxCell id="GBUOb3WT3lDImv7dpIOP-12" value="" style="line;strokeWidth=4;direction=south;html=1;perimeter=backbonePerimeter;points=[];outlineConnect=0;" vertex="1" parent="1">
          <mxGeometry x="414" y="440" width="10" height="280" as="geometry" />
        </mxCell>
        <mxCell id="GBUOb3WT3lDImv7dpIOP-13" value="" style="line;strokeWidth=4;direction=south;html=1;perimeter=backbonePerimeter;points=[];outlineConnect=0;" vertex="1" parent="1">
          <mxGeometry x="290" y="340" width="10" height="380" as="geometry" />
        </mxCell>
        <mxCell id="GBUOb3WT3lDImv7dpIOP-15" value="" style="line;strokeWidth=4;direction=south;html=1;perimeter=backbonePerimeter;points=[];outlineConnect=0;rotation=90;" vertex="1" parent="1">
          <mxGeometry x="465.63" y="419.38" width="30" height="606.25" as="geometry" />
        </mxCell>
      </root>
    </mxGraphModel>
  </diagram>
</mxfile>
